# xmcd
#
# Track frame offsets:
#	150
#	10637
#	20982
#	33561
#	44493
#	55183
#	72785
#	91062
#	104306
#	129573
#	143498
#	156422
#	179179
#
# Disc length: 2538 seconds
#
# Revision: 1
# Processed by: cddbd v1.4PL0 Copyright (c) Steve Scherf et al.
# Submitted via: audiograbber 1.80.04
#
DISCID=b209e80d
DTITLE=Johnny Cash - American Recordings
DYEAR=1900
DGENRE=Country
TTITLE0=Delia`s gone
TTITLE1=Let the train blow the whistle
TTITLE2=The best in me
TTITLE3=Drive on
TTITLE4=Why me lord
TTITLE5=Thirteen
TTITLE6=Oh bury me not
TTITLE7=Bird on a wire
TTITLE8=Tennessee stud
TTITLE9=Down there by the train
TTITLE10=Redemption
TTITLE11=Like a soldier
TTITLE12=The man who couldn`t cry
EXTD=
EXTT0=
EXTT1=
EXTT2=
EXTT3=
EXTT4=
EXTT5=
EXTT6=
EXTT7=
EXTT8=
EXTT9=
EXTT10=
EXTT11=
EXTT12=
PLAYORDER=
